<svg xmlns="http://www.w3.org/2000/svg" width="12.307" height="12.3" viewBox="0 0 12.307 12.3"><g transform="translate(0.15 0.15)"><path d="M11.527,3.831A5.882,5.882,0,0,0,8.33.647,5.9,5.9,0,0,0,5.993.168a5.84,5.84,0,0,0-2.33.479A5.9,5.9,0,0,0,.473,3.831a6,6,0,0,0,0,4.667,5.914,5.914,0,0,0,3.19,3.19,5.84,5.84,0,0,0,2.33.479,5.9,5.9,0,0,0,2.337-.479,5.9,5.9,0,0,0,3.2-3.19,5.922,5.922,0,0,0,0-4.667Zm-.958,4.983a5.267,5.267,0,0,1-1.93,1.923,5.17,5.17,0,0,1-2.645.709,5.084,5.084,0,0,1-2.048-.42A5.368,5.368,0,0,1,2.265,9.9,5.335,5.335,0,0,1,1.142,8.216,5.168,5.168,0,0,1,.729,6.161a5.161,5.161,0,0,1,.7-2.639A5.269,5.269,0,0,1,3.355,1.6,5.13,5.13,0,0,1,5.993.89,5.17,5.17,0,0,1,8.639,1.6a5.283,5.283,0,0,1,1.93,1.923,5.131,5.131,0,0,1,.709,2.639A5.18,5.18,0,0,1,10.569,8.814Z" transform="translate(0 -0.168)" fill="#fff" stroke="#fff" stroke-width="0.3"/><path d="M288.02,115.629V111.38a.473.473,0,0,0-.476-.459.462.462,0,0,0-.451.459v4.314a.375.375,0,0,1,.016.066.429.429,0,0,0,.123.369l2.452,2.452a.467.467,0,0,0,.631,0,.442.442,0,0,0,0-.64Z" transform="translate(-281.866 -109.333)" fill="#fff" stroke="#fff" stroke-width="0.3"/></g></svg>