<svg xmlns="http://www.w3.org/2000/svg" width="18" height="17.6" viewBox="0 0 18 17.6"><g transform="translate(-45 -239)"><circle cx="5.5" cy="5.5" r="5.5" transform="translate(45 242)" fill="#eceefa"/><path d="M15.5,1161.4l5,5-1.5,1.5-5-5v-.8l-.3-.3a6.362,6.362,0,0,1-4.2,1.5,6.039,6.039,0,0,1-4.6-1.9,6.6,6.6,0,0,1-1.9-4.6,6.039,6.039,0,0,1,1.9-4.6,6.6,6.6,0,0,1,4.6-1.9,6.19,6.19,0,0,1,4.6,1.9,6.6,6.6,0,0,1,1.9,4.6,6.361,6.361,0,0,1-1.5,4.2l.3.3h.7Zm-9.2-1.3a4.224,4.224,0,0,0,3.2,1.3,4.377,4.377,0,0,0,3.2-1.3,4.588,4.588,0,0,0,0-6.4,4.224,4.224,0,0,0-3.2-1.3,4.377,4.377,0,0,0-3.2,1.3,4.224,4.224,0,0,0-1.3,3.2A4.626,4.626,0,0,0,6.3,1160.1Z" transform="translate(42.5 -911.3)" fill="#2d53dc"/></g></svg>